# xmcd
#
# Track frame offsets:
#	150
#	10900
#	29425
#	45245
#	54850
#	70900
#	83572
#	96622
#	106530
#	139827
#	152972
#	166682
#	182275
#	192855
#	213305
#	244287
#
# Disc length: 3440 seconds
#
# Revision: 0
# Processed by: cddbd v1.5.2PL0 Copyright (c) Steve Scherf et al.
# Submitted via: MusicWizard 7.2.0
#
DISCID=c50d6e10
DTITLE=James Cotton - Best Of The Vanguard Years
DYEAR=1999
DGENRE=Blues
TTITLE0=Cotton Crop Blues
TTITLE1=The Blues Keep Falling
TTITLE2=Love Me Or Leave Me
TTITLE3=Rocket 88
TTITLE4=West Helena Blues
TTITLE5=River's Invitation
TTITLE6=Honest I Do
TTITLE7=Got To Get You Off My Mind
TTITLE8=Coast Blues
TTITLE9=Next Time You See Me
TTITLE10=Cut You Loose
TTITLE11=Ain't Nobody's Business
TTITLE12=Set A Date
TTITLE13=Slippin'and Slidin'
TTITLE14=Negative 10-4
TTITLE15=Next Time You See Me
EXTD=versch. Bes.
EXTT0=
EXTT1=
EXTT2=
EXTT3=
EXTT4=
EXTT5=
EXTT6=
EXTT7=
EXTT8=
EXTT9=
EXTT10=
EXTT11=
EXTT12=
EXTT13=
EXTT14=
EXTT15=
PLAYORDER=
